<svg width="32" height="22" viewBox="0 0 32 22" fill="none" xmlns="http://www.w3.org/2000/svg">
<path d="M14.1852 17.4505C14.9988 16.057 17.0422 15.8999 17.9127 16.9335C17.4007 18.2174 17.7346 18.729 18.2461 18.4453C18.6675 18.2114 18.5183 17.4133 18.1685 16.6376C19.8619 17.6787 18.8046 19.0548 18.5448 19.2509C19.211 19.619 19.1938 21.489 18.0495 20.5937C17.0321 19.7978 15.7592 19.6907 14.1852 20.8918C13.5195 21.3999 12.7202 20.9409 13.4383 19.3205C13.2198 19.3948 13.1129 18.6987 13.1819 18.127C13.2589 17.4904 13.6632 17.0072 14.0058 16.7541C13.424 18.7686 14.4749 18.8672 14.6935 18.694C15.4962 18.0574 14.6774 17.2121 14.1852 17.4505Z" fill="#2B599F"/>
<path d="M14.4878 21.3024C15.829 22.4881 18.0745 21.9888 18.0745 21.0912C17.5961 20.238 15.5297 20.3775 14.4878 21.3024Z" fill="#2B599F"/>
<path d="M18.7012 13.9729C19.2494 14.1489 20.0095 14.5022 20.0334 13.7642C19.7246 13.1182 19.3354 13.2454 18.7012 13.9729Z" fill="#2B599F"/>
<path d="M13.2448 13.7186C12.659 13.4589 12.0824 12.5506 11.7075 13.2709C11.7266 14.0457 12.061 14.302 13.2448 13.7186Z" fill="#2B599F"/>
<path d="M25.1941 1.20931e-05C32.6978 3.65322 30.5559 14.7542 25.1627 11.8452C22.0006 9.57379 18.7325 3.94192 15.9999 6.72684C13.2178 3.97749 10.0491 9.53822 6.83784 11.8452C1.4443 14.7542 -0.697506 3.65322 6.80583 1.20931e-05C-3.54496 3.60506 -0.385032 15.6269 5.08074 15.9392C8.31025 15.1147 8.7574 14.6878 11.4345 11.3242C12.8521 9.11321 14.2308 8.91518 15.9311 9.49824C17.8578 8.75777 19.3638 9.44912 20.566 11.3242C23.2426 14.6878 23.6897 15.1147 26.9195 15.9392C32.3853 15.6269 35.5447 3.60506 25.1941 1.20931e-05Z" fill="#2B599F"/>
<path d="M10.8607 15.2115C11.5066 16.4781 14.7996 23.2543 3.96143 19.8571C4.67871 17.7981 7.11236 15.3812 10.1355 15.5601C6.60012 16.4013 8.40882 19.8486 10.0088 18.1237C9.98733 18.3532 10.0463 18.7114 10.2379 18.8131C11.0936 17.7427 11.211 17.1203 10.8607 15.2115Z" fill="#2B599F"/>
<path d="M15.7617 10.3626V15.6938C15.9692 13.4876 16.3147 11.0474 16.9574 10.0443C16.1631 9.83561 15.7617 10.323 15.7617 10.3626Z" fill="#2B599F"/>
<path d="M21.4251 15.2115C20.7793 16.4781 17.4863 23.2543 28.3244 19.8571C27.6071 17.7981 25.1735 15.3812 22.1504 15.5601C25.6857 16.4013 23.877 19.8486 22.2771 18.1237C22.2985 18.3532 22.2395 18.7114 22.048 18.8131C21.1923 17.7427 21.0748 17.1203 21.4251 15.2115Z" fill="#2B599F"/>
</svg>
